<?xml version="1.0" encoding="utf-8"?>
<!-- Generator: Adobe Illustrator 20.1.0, SVG Export Plug-In . SVG Version: 6.00 Build 0)  -->
<svg version="1.1" id="Layer_1" xmlns="http://www.w3.org/2000/svg" xmlns:xlink="http://www.w3.org/1999/xlink" x="0px" y="0px"
	 viewBox="0 0 512 512" style="enable-background:new 0 0 512 512;" xml:space="preserve">
<style type="text/css">
	.st0{fill:#9A261E;}
	.st1{fill:#FFFFFF;}
</style>
<polygon class="st0" points="488.4,59.4 441.3,59.4 431.6,59.4 411.1,59.4 411.1,126 349.1,126 349.1,59.4 286.7,59.4 286.7,126 
	224.2,126 224.2,59.4 162.3,59.4 162.3,126 99.8,126 99.8,59.4 23,59.4 23,512 488.4,512 "/>
<polyline class="st0" points="115.2,0 146.4,0 146.4,110.6 115.2,110.6 115.2,0 "/>
<polyline class="st0" points="364.5,0 395.7,0 395.7,110.6 364.5,110.6 364.5,0 "/>
<polyline class="st0" points="240.1,0 270.8,0 270.8,110.6 240.1,110.6 240.1,0 "/>
<polyline class="st1" points="440.8,173.1 440.8,464.9 70.1,464.9 70.1,173.1 99.8,173.1 162.3,173.1 177.1,173.1 224.2,173.1 
	286.7,173.1 301.5,173.1 349.1,173.1 411.1,173.1 440.8,173.1 "/>
<g>
	<path class="st0" d="M262.7,332.2v-33.8h41.5v33.8h21.9v37.4h-21.9v46.3h-41.5v-46.3h-77.8v-33l69-114.4h47.1l-65.6,110H262.7z"/>
</g>
</svg>
