<?xml version="1.0" encoding="utf-8"?>
<!-- Generator: Adobe Illustrator 20.1.0, SVG Export Plug-In . SVG Version: 6.00 Build 0)  -->
<svg version="1.1" id="Layer_1" xmlns="http://www.w3.org/2000/svg" xmlns:xlink="http://www.w3.org/1999/xlink" x="0px" y="0px"
	 viewBox="0 0 102 102" style="enable-background:new 0 0 102 102;" xml:space="preserve">
<style type="text/css">
	.st0{fill:#008399;}
	.st1{fill:#006773;}
	.st2{fill:#FFFFFF;}
</style>
<g>
	<path class="st0" d="M51,100.2C23.9,100.2,1.8,78.1,1.8,51S23.9,1.8,51,1.8c27.1,0,49.2,22.1,49.2,49.2S78.1,100.2,51,100.2"/>
	<path class="st0" d="M51,2.6c26.7,0,48.4,21.7,48.4,48.4c0,26.7-21.7,48.4-48.4,48.4C24.3,99.4,2.6,77.7,2.6,51
		C2.6,24.3,24.3,2.6,51,2.6 M51,1C23.4,1,1,23.4,1,51c0,27.6,22.4,50,50,50c27.6,0,50-22.4,50-50C101,23.4,78.6,1,51,1"/>
	<path class="st1" d="M51,99.4c-13.7,0-26.2-5.8-35-15c8.7,8.3,20.5,13.4,33.4,13.4c26.7,0,48.4-21.7,48.4-48.4
		c0-13-5.1-24.7-13.4-33.4c9.2,8.8,14.9,21.1,15,34.7v0v0v0v0c0,0,0,0,0,0v0v0v0v0v0v0v0v0v0v0v0v0v0v0v0v0v0v0
		C99.4,77.7,77.7,99.4,51,99.4"/>
	<path class="st1" d="M99.4,50.8L99.4,50.8 M99.4,50.8L99.4,50.8L99.4,50.8 M99.4,50.8L99.4,50.8L99.4,50.8 M99.4,50.8L99.4,50.8
		L99.4,50.8 M99.4,50.8L99.4,50.8L99.4,50.8 M99.4,50.9L99.4,50.9L99.4,50.9 M99.4,50.9L99.4,50.9L99.4,50.9 M99.4,50.9L99.4,50.9
		L99.4,50.9 M99.4,50.9L99.4,50.9L99.4,50.9 M99.4,50.9L99.4,50.9L99.4,50.9 M99.4,51L99.4,51L99.4,51 M99.4,51L99.4,51L99.4,51
		 M51,99.4L51,99.4c26.7,0,48.4-21.7,48.4-48.4C99.4,77.7,77.7,99.4,51,99.4"/>
	<path class="st2" d="M52.8,28.8h3.5c2.1,0,4,0.9,5.8,2.8c1.7,1.8,2.6,3.9,2.6,6.1V56c0,1.8-0.6,3.4-1.9,4.7c-1.2,1.3-3,2.2-5.1,2.5
		v25.7H44.1V63.2c-2.1-0.6-3.7-1.4-4.9-2.5c-1.2-1.1-1.8-2.3-1.8-3.6V37.7c0-2.7,0.9-4.9,2.7-6.5c1.8-1.6,4.2-2.4,7.2-2.4
		c0,0,0.1,0,0.1,0h0.2c0.5,0,1,0,1.5,0c0-0.1,0-0.1,0.1-0.2c0.1-0.1,0.2-0.2,0.2-0.2c-1.8-0.5-3.2-1.5-4.3-2.9
		c-1.1-1.4-1.6-3-1.6-4.7c0-2.1,0.8-3.9,2.3-5.4c1.5-1.5,3.3-2.3,5.4-2.3c2.1,0,4,0.8,5.5,2.3c1.5,1.5,2.3,3.3,2.3,5.4
		c0,1.8-0.6,3.4-1.8,4.9c-1.2,1.4-2.7,2.3-4.5,2.7C52.8,28.6,52.8,28.7,52.8,28.8"/>
</g>
</svg>
